<?xml version="1.0" encoding="UTF-8" standalone="no"?>
<!-- Created with Inkscape (http://www.inkscape.org/) -->

<svg
   version="1.1"
   id="svg1"
   width="500"
   height="500"
   viewBox="0 0 500 500"
   xmlns:xlink="http://www.w3.org/1999/xlink"
   xmlns="http://www.w3.org/2000/svg"
   xmlns:svg="http://www.w3.org/2000/svg">
  <defs
     id="defs1" />
  <g
     id="g1">
    <path
       style="fill:#121311;stroke:none"
       d="m 84.589253,74.339042 c -7.209964,2.513347 -4.676956,14.927002 -4.676956,20.864706 v 63.333332 208.00001 55.33333 c 0,6.34453 -2.048742,17.08789 1.432098,22.63013 3.738525,5.95256 14.547694,4.03654 20.567905,4.03654 h 59.33333 182.66667 53.33333 c 7.71806,0 18.02568,1.77327 25.33333,-0.93262 9.13347,-3.38192 7.33334,-13.184 7.33334,-21.06738 v -61.33334 c 0,-70.2501 -0.66667,-140.40794 -0.66667,-210.66667 V 99.870415 c 0,-6.168173 2.01624,-16.694459 -1.90279,-21.876547 -4.6342,-6.127726 -14.73328,-4.123454 -21.43054,-4.123454 h -59.33334 -183.33333 -54 c -7.27035,0 -17.772723,-1.930989 -24.656377,0.468628 M 192.57896,87.870415 v 68.000005 18 c 0,2.10408 0.54733,5.27437 -0.68519,7.1214 -2.52413,3.78261 -17.0949,1.54526 -21.31481,1.54526 H 113.9123 c -3.85158,0 -16.903807,1.8382 -19.314818,-1.57149 -1.258107,-1.77924 -0.685185,-5.04171 -0.685185,-7.09517 v -18 -68.000005 h 98.666663 m 14.8786,0.402262 c 4.99897,-2.459798 15.55903,-0.402262 21.1214,-0.402262 h 51.33334 16 c 1.74454,7.73e-4 4.73911,-0.499716 5.98148,1.068929 2.69629,3.404337 0.68518,14.657306 0.68518,18.931066 0,17.78158 0.66667,35.60448 0.66667,53.33334 0,5.36283 0.63678,10.67246 0.66357,16 0.008,1.67293 0.24195,4.05316 -1.54217,4.93107 -4.99894,2.4598 -15.55904,0.40226 -21.1214,0.40226 h -52.66667 -16 c -1.74454,-7.9e-4 -4.7391,0.4997 -5.98147,-1.06893 -2.69629,-3.40433 -0.68519,-14.65734 -0.68519,-18.93107 V 109.20375 93.870415 c 0.004,-1.802572 -0.41465,-4.633342 1.54526,-5.597738 m 109.1214,-0.402262 h 72.66667 18.66667 c 1.94026,0 5.2985,-0.607829 6.93107,0.68518 3.21997,2.550293 1.06893,16.687505 1.06893,20.648155 v 53.33333 c 0,4.39895 2.08459,16.10061 -0.68518,19.59774 -2.72616,3.44204 -15.35165,0.40251 -19.31482,0.40226 h -57.33334 -16 c -1.80249,-0.004 -4.63334,0.41464 -5.59773,-1.54526 -3.0245,-6.14651 -0.40227,-19.58716 -0.40227,-26.45474 V 87.870415 M 124.58925,121.58542 c -6.23191,1.8455 -4.40392,10.37931 0.65895,12.46657 7.54917,3.11225 20.06206,1.6117 27.99743,0.67542 2.82467,-0.33327 5.97619,0.26438 8.65432,-0.86316 5.99431,-2.52374 4.42796,-10.10557 -1.3215,-11.62193 -3.18018,-0.83874 -6.73909,-0.27103 -9.99949,-0.51233 -7.72918,-0.57198 -18.4774,-2.36926 -25.98971,-0.14457 m 132.65638,0.0915 c -5.6542,0.0753 -14.87819,-1.46687 -19.99691,1.07203 -4.74402,2.35306 -5.21429,8.38098 -0.6569,11.21606 3.16943,1.97166 7.75796,1.23869 11.32048,1.23869 6.91343,0 13.72747,0.83807 20.66666,0.6569 5.65365,-0.1476 13.38505,-7.08932 6.56586,-12.06429 -4.29222,-3.13143 -12.8454,-2.18669 -17.89919,-2.11939 m 120,0.47893 c -7.45308,0.88993 -15.16323,0.38118 -22.66667,0.38118 -2.87907,0 -6.87927,-0.6969 -9.1214,1.54525 -3.73293,3.73295 -0.86627,9.93565 3.78807,10.89201 9.14213,1.87848 25.61686,3.09924 34.66616,0.60697 4.61721,-1.27162 6.51223,-7.26216 3.12449,-10.81482 -2.42147,-2.53935 -6.49249,-3.00439 -9.79065,-2.61059 M 191.9123,196.53708 v 93.33334 H 123.24563 103.9123 c -2.43457,0 -6.217161,0.69877 -8.454736,-0.40226 -3.583056,-1.76311 -1.545267,-16.61204 -1.545267,-20.26441 v -54 c 0,-3.58693 -1.897268,-15.63222 1.068929,-17.98149 1.632558,-1.29301 4.990834,-0.68518 6.931074,-0.68518 h 18.66666 71.33334 m 110.66666,0 v 93.33334 h -70.66666 -18 c -1.90991,0 -5.23988,0.60819 -6.83848,-0.68518 -3.07174,-2.48527 -1.16152,-14.27877 -1.16152,-17.98149 v -54 c 0,-4.03428 -2.11101,-18.17173 2.20936,-20.2644 6.3524,-3.07697 20.04633,-0.40227 27.12397,-0.40227 h 67.33333 m 14,0 h 72.66667 18.66667 c 1.94018,0 5.29854,-0.6078 6.93107,0.68518 3.21997,2.55026 1.06893,16.68753 1.06893,20.64816 v 52.66667 c 0,4.27372 2.01111,15.52673 -0.68518,18.93107 -2.45024,3.09367 -15.54061,1.06893 -19.31482,1.06893 h -57.33334 -16 c -1.80249,-0.004 -4.63334,0.41463 -5.59773,-1.54527 -3.0245,-6.14651 -0.40227,-19.58716 -0.40227,-26.45473 v -66.00001 m -190,32.31224 c -6.80005,1.3205 -8.0696,9.54744 -1.33076,12.25616 9.56513,3.84475 24.9608,3.30667 34.66359,0.24848 5.57745,-1.75794 8.46918,-9.68512 1.33076,-11.76854 -3.55412,-1.03729 -7.67254,-0.19085 -11.33025,-0.44134 -7.46143,-0.51097 -15.90716,-1.73686 -23.33334,-0.29476 m 222.66718,0.70988 c -6.51801,1.59267 -7.01085,9.93433 -0.66667,12.28961 3.32597,1.23478 7.19822,0.56264 10.66616,0.71452 7.71617,0.33791 17.89119,2.59306 25.33024,-0.20217 6.43848,-2.41927 4.55316,-11.00952 -1.3328,-12.73199 -8.23865,-2.41099 -25.65636,-2.10798 -33.99693,-0.07 m -110.66461,1.35956 c -6.74156,1.96116 -5.03217,10.13987 0.66461,12.1888 7.75006,2.78741 16.09064,0.96507 23.99949,0.20937 3.53143,-0.33742 7.35872,-0.0296 10.62758,-1.73303 2.97398,-1.54981 4.59046,-9.48967 0.607,-10.7572 -2.52987,-0.80502 -5.31728,0.35223 -7.90125,0.1605 -8.23156,-0.61076 -20.00752,-2.39276 -27.99743,-0.0684 M 96.011062,304.27268 c 5.528358,-2.41374 15.880508,-0.40226 21.901238,-0.40226 h 51.33333 16 c 1.74452,7.7e-4 4.73912,-0.49967 5.98148,1.06893 2.76981,3.49717 0.68519,15.19875 0.68519,19.59774 v 53.33333 15.33333 c -0.004,1.8025 0.41462,4.63335 -1.54527,5.59774 -4.99893,2.4598 -15.55905,0.40227 -21.1214,0.40227 h -51.33333 -16 c -1.78213,-0.003 -4.702721,0.41898 -5.981484,-1.16154 -2.939397,-3.63302 -0.804815,-15.68767 -0.694962,-20.1718 0.42776,-17.46061 0.594081,-35.27022 -0.597219,-52.66667 -0.275756,-4.02683 -2.949763,-19.04394 1.372427,-20.93107 m 112.112648,0 c 5.01698,-2.45414 15.54601,-0.40226 21.12192,-0.40226 h 52 16 c 1.74453,7.7e-4 4.73912,-0.4997 5.98149,1.06893 2.76981,3.49715 0.68518,15.19877 0.68518,19.59774 v 53.33333 15.33333 c -0.004,1.80254 0.41465,4.63335 -1.54527,5.59774 -5.61589,2.76339 -15.75256,-0.25927 -21.78807,-0.25927 -17.04895,0 -34.22747,0.66154 -51.33333,0.66154 h -16 c -1.7471,-7.8e-4 -4.73579,0.49886 -5.98148,-1.06893 -3.37193,-4.24378 -0.57318,-13.40422 -0.75257,-18.26441 -0.67228,-18.21411 0.41727,-36.41394 0.0581,-54.66667 -0.0745,-3.78505 -2.20735,-19.09114 1.554,-20.93107 m 208.45525,7.59774 -0.67643,29.33333 -0.65687,62.66667 c -27.38196,4.02576 -55.53412,13.33028 -83.33333,13.33334 0,-21.34782 0.66666,-42.6989 0.66666,-64.00001 0,-7.03214 -2.69214,-20.82955 0.40227,-27.1214 0.87074,-1.77048 3.27573,-1.54939 4.93107,-1.8539 4.92271,-0.90558 9.71793,-2.45239 14.66666,-3.20526 15.14783,-2.3045 30.09825,-5.45365 45.33334,-7.26593 5.9036,-0.70227 12.7677,-3.16496 18.66666,-1.88684 m -291.33333,26.32202 c -6.66739,1.45836 -7.85289,10.21379 -1.30659,12.91256 3.21103,1.32377 7.2445,0.76542 10.63992,0.76542 8.09601,0 19.64596,2.10105 27.30658,-0.61316 5.92236,-2.09835 5.03801,-10.64294 -0.64042,-12.45731 -9.06352,-2.896 -26.71896,-2.63746 -35.99949,-0.60751 m 113.34363,0.0597 c -7.42125,2.19408 -4.05748,10.41966 1.32355,12.62962 6.75136,2.77279 16.79107,0.98869 23.99949,0.98869 3.2139,0 6.97135,0.52389 9.9969,-0.76542 6.20714,-2.64514 4.33354,-10.03906 -1.33075,-11.95475 -8.15417,-2.75776 -25.71818,-3.34347 -33.98919,-0.89814 m 145.9897,11.23456 c -8.09448,1.06283 -18.18322,0.34916 -25.2608,5.19291 -7.56803,5.17941 0.32243,11.63027 6.59414,11.12861 7.61529,-0.60916 22.96645,-1.4422 29.26082,-5.83334 2.74589,-1.91563 4.4707,-8.61778 0.58691,-10.36883 -2.8883,-1.30225 -8.12198,-0.521 -11.18107,-0.11935 m 30.66667,71.05039 c 0,2.95251 1.44194,11.32617 -1.06893,13.31482 -3.49715,2.76977 -15.19877,0.68518 -19.59774,0.68518 h -53.33333 -182 -47.33333 c -3.99653,0 -13.701053,1.77222 -16.931074,-0.78601 -2.580312,-2.04366 -2.207235,-20.04102 1.029836,-21.00208 5.714338,-1.69649 13.940948,-0.21191 19.901238,-0.21191 15.59039,0 31.08937,0.66667 46.66666,0.66667 h 55.33334 90 c 2.52415,0 8.89534,-1.14417 10.64815,1.06892 4.40938,5.56731 -1.11967,17.38518 10.01851,18.84209 9.18311,1.20117 20.99233,-2.99353 30,-4.90434 18.57618,-3.94051 37.6434,-7.67334 56.66667,-7.67334 z"
       id="path2" />
  </g>
</svg>
